<svg width="60" height="85" viewBox="0 0 60 85" fill="none" xmlns="http://www.w3.org/2000/svg">
<path fill-rule="evenodd" clip-rule="evenodd" d="M30 0C42.1503 0 52 9.84973 52 22V36H56C58.2092 36 60 37.7909 60 40V70C60 78.2843 53.2842 85 45 85H15C6.71573 85 0 78.2843 0 70V40C0 37.7909 1.79086 36 4 36H8V22C8 9.84973 17.8497 0 30 0ZM44.9999 23.1136V36H15V23.1136C15 14.8294 21.7157 8.11371 29.9999 8.11371C38.2842 8.11371 44.9999 14.8294 44.9999 23.1136ZM37 54C37 56.7924 35.3649 59.2029 33 60.3264V68C33 69.6569 31.6569 71 30 71C28.3431 71 27 69.6569 27 68V60.3264C24.6351 59.2029 23 56.7924 23 54C23 50.134 26.134 47 30 47C33.866 47 37 50.134 37 54Z" fill="white"/>
</svg>
